<svg xmlns="http://www.w3.org/2000/svg" version="1.1" xmlns:xlink="http://www.w3.org/1999/xlink" xmlns:svgjs="http://svgjs.dev/svgjs" width="1440" height="560" preserveAspectRatio="none" viewBox="0 0 1440 560">
    <g mask="url(&quot;#SvgjsMask1035&quot;)" fill="none">
        <rect width="1440" height="560" x="0" y="0" fill="rgba(37, 37, 37, 1)"></rect>
        <path d="M582.303,512.508C630.946,511.76,682.994,499.237,706.484,456.635C729.417,415.044,709.72,366.215,685.494,325.363C661.907,285.588,628.543,246.665,582.303,247.227C536.717,247.781,507.221,288.968,483.368,327.819C457.842,369.395,428.286,417.557,451.323,460.562C475.094,504.937,531.968,513.283,582.303,512.508" fill="rgba(39, 39, 91, 0.42)" class="triangle-float3"></path>
        <path d="M1017.68 238.82 a164.74 164.74 0 1 0 329.48 0 a164.74 164.74 0 1 0 -329.48 0z" fill="rgba(39, 39, 91, 0.42)" class="triangle-float1"></path>
        <path d="M717.67 195.31 a144.55 144.55 0 1 0 289.1 0 a144.55 144.55 0 1 0 -289.1 0z" fill="rgba(39, 39, 91, 0.42)" class="triangle-float3"></path>
        <path d="M-111.57 202.9 a150.96 150.96 0 1 0 301.92 0 a150.96 150.96 0 1 0 -301.92 0z" fill="rgba(39, 39, 91, 0.42)" class="triangle-float3"></path>
        <path d="M224.8134265795137 425.7105400359265L198.76473799930375 334.8679672381887 75.52522309280212 419.3622865073726z" fill="rgba(39, 39, 91, 0.42)" class="triangle-float3"></path>
        <path d="M308.73484914123003 162.8472533339692L245.53662101364958 33.27168342298626 115.96105110266663 96.4699115505667 179.15927923024708 226.04548146154966z" fill="rgba(39, 39, 91, 0.42)" class="triangle-float3"></path>
        <path d="M1454.8722101540732 137.2975807529059L1346.3639361987691 120.00553765620731 1379.2150384360907 210.26319925744377z" fill="rgba(39, 39, 91, 0.42)" class="triangle-float1"></path>
        <path d="M370.089,535.436C391.433,535.754,414.668,531.922,425.731,513.667C437.094,494.917,431.054,471.659,420.329,452.536C409.312,432.892,392.592,413.502,370.089,414.455C348.526,415.368,336.99,437.521,326.714,456.5C317.129,474.204,307.553,494.406,317.248,512.05C327.19,530.142,349.447,535.128,370.089,535.436" fill="rgba(39, 39, 91, 0.42)" class="triangle-float3"></path>
        <path d="M682.75 509.73 a160.18 160.18 0 1 0 320.36 0 a160.18 160.18 0 1 0 -320.36 0z" fill="rgba(39, 39, 91, 0.42)" class="triangle-float2"></path>
        <path d="M501.9 0.46 a109.29 109.29 0 1 0 218.58 0 a109.29 109.29 0 1 0 -218.58 0z" fill="rgba(39, 39, 91, 0.42)" class="triangle-float3"></path>
        <path d="M756.715,647.753C785.802,647.596,814.925,636.138,829.281,610.841C843.481,585.819,836.117,556.264,823.232,530.541C808.399,500.93,789.831,466.337,756.715,465.979C723.298,465.618,702.784,499.275,687.658,529.075C674.285,555.421,667.921,586.093,682.781,611.63C697.566,637.039,727.317,647.911,756.715,647.753" fill="rgba(39, 39, 91, 0.42)" class="triangle-float1"></path>
        <path d="M167.28061063222353 456.82425327181L96.44265435347748 347.51544282167856 42.98694101463718 448.0510176220026z" fill="rgba(39, 39, 91, 0.42)" class="triangle-float2"></path>
        <path d="M168.306,619.274C213.252,621.269,260.939,604.946,282.041,565.212C302.256,527.147,282.676,483.26,260.006,446.604C238.852,412.398,208.506,382.555,168.306,381.306C126.139,379.996,86.752,403.754,66.179,440.584C46.083,476.56,50.366,520.057,70.814,555.834C91.434,591.913,126.791,617.431,168.306,619.274" fill="rgba(39, 39, 91, 0.42)" class="triangle-float2"></path>
        <path d="M167.15 151.26 a182.13 182.13 0 1 0 364.26 0 a182.13 182.13 0 1 0 -364.26 0z" fill="rgba(39, 39, 91, 0.42)" class="triangle-float1"></path>
        <path d="M196.77043354701368 611.6695441639216L200.09481629867315 516.4716776780451 104.89694981279669 513.1472949263857 101.57256706113724 608.3451614122622z" fill="rgba(39, 39, 91, 0.42)" class="triangle-float1"></path>
        <path d="M601.94 82.4 a111.81 111.81 0 1 0 223.62 0 a111.81 111.81 0 1 0 -223.62 0z" fill="rgba(39, 39, 91, 0.42)" class="triangle-float3"></path>
        <path d="M226.70594331463113 392.47923333767636L335.5876355343655 271.78537685756976 197.1359513383591 239.82128696895003z" fill="rgba(39, 39, 91, 0.42)" class="triangle-float2"></path>
        <path d="M-27.45 18.81 a140.38 140.38 0 1 0 280.76 0 a140.38 140.38 0 1 0 -280.76 0z" fill="rgba(39, 39, 91, 0.42)" class="triangle-float3"></path>
        <path d="M1405.845,639.055C1432.594,637.403,1454.534,621.166,1469.033,598.626C1485.148,573.574,1498.75,542.888,1484.545,516.707C1469.901,489.718,1436.494,480.301,1405.845,482.168C1378.402,483.84,1356.75,502.073,1342.168,525.381C1326.387,550.605,1312.978,581.407,1327.519,607.366C1342.272,633.702,1375.715,640.916,1405.845,639.055" fill="rgba(39, 39, 91, 0.42)" class="triangle-float3"></path>
        <path d="M1097.6418891664111 243.88359627402312L1208.0279923831679 163.68339778625995 1017.441690678648 133.49749305726638z" fill="rgba(39, 39, 91, 0.42)" class="triangle-float2"></path>
    </g>
    <defs>
        <mask id="SvgjsMask1035">
            <rect width="1440" height="560" fill="#ffffff"></rect>
        </mask>
        <style>
            @keyframes float1 {
                    0%{transform: translate(0, 0)}
                    50%{transform: translate(-10px, 0)}
                    100%{transform: translate(0, 0)}
                }

                .triangle-float1 {
                    animation: float1 5s infinite;
                }

                @keyframes float2 {
                    0%{transform: translate(0, 0)}
                    50%{transform: translate(-5px, -5px)}
                    100%{transform: translate(0, 0)}
                }

                .triangle-float2 {
                    animation: float2 4s infinite;
                }

                @keyframes float3 {
                    0%{transform: translate(0, 0)}
                    50%{transform: translate(0, -10px)}
                    100%{transform: translate(0, 0)}
                }

                .triangle-float3 {
                    animation: float3 6s infinite;
                }
        </style>
    </defs>
</svg>