<svg id="visual" viewBox="0 0 900 600" width="900" height="600" xmlns="http://www.w3.org/2000/svg" xmlns:xlink="http://www.w3.org/1999/xlink" version="1.1"><g><g transform="translate(349 193)"><path d="M104.6 -40.3C116.9 3.6 95.1 52.3 61.5 74.2C28 96.2 -17.4 91.3 -45.1 69.5C-72.7 47.7 -82.6 8.8 -72.1 -32.7C-61.6 -74.3 -30.8 -118.5 7.7 -121C46.2 -123.5 92.4 -84.3 104.6 -40.3Z" fill="none" stroke="#27275B" stroke-width="4"></path></g><g transform="translate(859 334)"><path d="M59.2 -18.1C66.3 2.7 54.5 30.8 32.6 47.3C10.7 63.8 -21.4 68.7 -41.9 54.6C-62.4 40.4 -71.4 7.2 -62.4 -16.1C-53.5 -39.3 -26.8 -52.5 -0.4 -52.4C26 -52.3 52.1 -38.8 59.2 -18.1Z" fill="none" stroke="#27275B" stroke-width="4"></path></g><g transform="translate(47 583)"><path d="M81.5 -30.7C92.1 6.3 78 47.1 49.5 67.7C21.1 88.3 -21.8 88.7 -46.7 69.4C-71.6 50.1 -78.6 11.1 -67.8 -26.1C-57 -63.3 -28.5 -98.7 3.5 -99.9C35.4 -101 70.8 -67.7 81.5 -30.7Z" stroke="#27275B" fill="none" stroke-width="4"></path></g></g></svg>