<svg xmlns="http://www.w3.org/2000/svg" version="1.1" xmlns:xlink="http://www.w3.org/1999/xlink" xmlns:svgjs="http://svgjs.dev/svgjs" width="1440" height="560" preserveAspectRatio="none" viewBox="0 0 1440 560">
    <g mask="url(&quot;#SvgjsMask1095&quot;)" fill="none">
        <path d="M1174.68 333.95 a124.99 124.99 0 1 0 249.98 0 a124.99 124.99 0 1 0 -249.98 0z" fill="rgba(34, 34, 75, 0.4)" class="triangle-float2"></path>
        <path d="M534.7271969686182 591.243136211666L627.8677757055605 501.29832484636626 537.9229643402607 408.15774610942395 444.78238560331846 498.10255747472365z" fill="rgba(34, 34, 75, 0.4)" class="triangle-float2"></path>
        <path d="M751.4050045655524 495.13843299939083L839.279789373091 421.40273347760234 765.5440898513025 333.5279486700638 677.6693050437639 407.26364819185227z" fill="rgba(34, 34, 75, 0.4)" class="triangle-float2"></path>
        <path d="M112.55 373.61 a121.88 121.88 0 1 0 243.76 0 a121.88 121.88 0 1 0 -243.76 0z" fill="rgba(34, 34, 75, 0.4)" class="triangle-float1"></path>
        <path d="M1089.714,362.581C1125.538,363.222,1161.496,346.251,1177.582,314.235C1192.487,284.57,1176.444,251.766,1159.838,223.018C1143.241,194.286,1122.895,161.96,1089.714,162.12C1056.685,162.279,1036.755,194.796,1020.749,223.687C1005.418,251.36,993.063,282.848,1007.132,311.183C1022.587,342.309,1054.968,361.959,1089.714,362.581" fill="rgba(34, 34, 75, 0.4)" class="triangle-float1"></path>
        <path d="M868.812,313.528C905.054,312.77,944.133,305.88,962.532,274.647C981.137,243.065,971.682,203.421,951.827,172.609C933.699,144.476,902.275,129.793,868.812,129.204C834.147,128.594,799.952,140.844,780.576,169.594C758.646,202.134,747.54,245.259,768.048,278.713C787.954,311.184,830.733,314.324,868.812,313.528" fill="rgba(34, 34, 75, 0.4)" class="triangle-float1"></path>
        <path d="M1060.8501284434203-65.6790911008417L1100.2614751645135 92.39118689308893 1258.3317531584441 52.979840171995804 1218.920406437351-105.09043782193483z" fill="rgba(34, 34, 75, 0.4)" class="triangle-float1"></path>
        <path d="M11.858210397327001 478.3902360977864L5.934707051748233 563.1002805134249 90.64475146738674 569.0237838590036 96.5682548129655 484.31373944336514z" fill="rgba(34, 34, 75, 0.4)" class="triangle-float3"></path>
        <path d="M-96.31 126.17 a101.03 101.03 0 1 0 202.06 0 a101.03 101.03 0 1 0 -202.06 0z" fill="rgba(34, 34, 75, 0.4)" class="triangle-float2"></path>
        <path d="M131.836,326.272C177.785,323.282,201.854,276.522,223.948,236.123C244.762,198.065,265.8,155.597,246.398,116.8C225.36,74.732,178.871,51.772,131.836,51.933C85.082,52.093,42.212,77.212,18.625,117.58C-5.18,158.321,-6.178,208.158,16.322,249.634C39.938,293.167,82.415,329.488,131.836,326.272" fill="rgba(34, 34, 75, 0.4)" class="triangle-float2"></path>
        <path d="M61.87345517572333 551.3588472704341L167.8895697563767 477.12556466935627 93.65628715529883 371.10945008870294-12.359827425354531 445.34273268978075z" fill="rgba(34, 34, 75, 0.4)" class="triangle-float1"></path>
        <path d="M246.95310497065236 340.25198307584344L278.255758426618 426.25531661512224 391.6094320075533 336.2996696615344z" fill="rgba(34, 34, 75, 0.7)" class="triangle-float3"></path>
    </g>
    <defs>
        <mask id="SvgjsMask1095">
            <rect width="1440" height="560" fill="#ffffff"></rect>
        </mask>
        <style>
            @keyframes float1 {
                    0%{transform: translate(0, 0)}
                    50%{transform: translate(-10px, 0)}
                    100%{transform: translate(0, 0)}
                }

                .triangle-float1 {
                    animation: float1 5s infinite;
                }

                @keyframes float2 {
                    0%{transform: translate(0, 0)}
                    50%{transform: translate(-5px, -5px)}
                    100%{transform: translate(0, 0)}
                }

                .triangle-float2 {
                    animation: float2 4s infinite;
                }

                @keyframes float3 {
                    0%{transform: translate(0, 0)}
                    50%{transform: translate(0, -10px)}
                    100%{transform: translate(0, 0)}
                }

                .triangle-float3 {
                    animation: float3 6s infinite;
                }
        </style>
    </defs>
</svg>