<svg xmlns="http://www.w3.org/2000/svg" version="1.1" xmlns:xlink="http://www.w3.org/1999/xlink" xmlns:svgjs="http://svgjs.dev/svgjs" width="1440" height="560" preserveAspectRatio="none" viewBox="0 0 1440 560">
    <g mask="url(&quot;#SvgjsMask1115&quot;)" fill="none">
        <rect width="1440" height="560" x="0" y="0" ></rect>
       <path d="M0,393.263C73.762,393.931,102.512,293.488,155.902,242.588C197.403,203.022,249.673,176.701,278.898,127.369C310.302,74.358,338.059,13.617,327.506,-47.088C317.036,-107.317,260.018,-144.596,223.143,-193.354C183.116,-246.28,162.208,-318.942,101.553,-345.856C39.203,-373.523,-33.029,-354.589,-98.708,-336.169C-165.02,-317.571,-231.996,-292.153,-276.71,-239.771C-321.276,-187.562,-333.186,-117.251,-343.504,-49.388C-353.896,18.959,-374.415,95.859,-336.535,153.69C-298.929,211.103,-210.009,199.976,-154.097,239.779C-93.816,282.692,-73.993,392.593,0,393.263" fill="#20204b"></path>
        <path d="M1440 862.03C1498.845 864.956 1561.258 857.408 1608.547 822.264 1654.742 787.933 1662.049 724.274 1691.721 674.957 1726.269 617.535 1802.938 575.408 1797.242 508.636 1791.598 442.46299999999997 1708.825 414.93899999999996 1665.266 364.80600000000004 1621.785 314.76300000000003 1606.412 227.79500000000002 1541.506 214.30200000000002 1475.614 200.60399999999998 1424.329 271.782 1364.316 302.243 1316.949 326.28499999999997 1268.262 342.43 1225.908 374.488 1173.942 413.822 1115.083 449.464 1090.22 509.709 1062.442 577.016 1042.297 662.426 1081.845 723.564 1121.828 785.375 1213.229 779.4739999999999 1281.892 806.02 1335.121 826.5989999999999 1383.002 859.196 1440 862.03" fill="#2e2e6b"></path>
    </g>
    <defs>
        <mask id="SvgjsMask1115">
            <rect width="1440" height="560" fill="#ffffff"></rect>
        </mask>
    </defs>
</svg>