<svg xmlns="http://www.w3.org/2000/svg" version="1.1" xmlns:xlink="http://www.w3.org/1999/xlink" xmlns:svgjs="http://svgjs.dev/svgjs" width="1440" height="560" preserveAspectRatio="none" viewBox="0 0 1440 560">
    <g mask="url(&quot;#SvgjsMask1008&quot;)" fill="none">
        <path d="M147.13 343.53 a14.36 14.36 0 1 0 28.72 0 a14.36 14.36 0 1 0 -28.72 0z" stroke="rgba(39, 39, 91, 0.69)"></path>
        <path d="M1055.77 388.89a47.5 47.5 0 1 0 42.22 85.11z" fill="rgba(39, 39, 91, 0.69)"></path>
        <path d="M791.4 190.54L831.72 190.54L831.72 230.86L791.4 230.86z" stroke="rgba(180, 58, 52, 0.55)"></path>
        <path d="M784.38 496.58L834.66 496.58L834.66 546.86L784.38 546.86z" stroke="rgba(39, 39, 91, 0.69)"></path>
        <path d="M869.57 550L912.91 550L912.91 596.38L869.57 596.38z" fill="rgba(223, 96, 113, 1)"></path>
        <path d="M129.19 46.67L160.86 46.67L160.86 78.34L129.19 78.34z" fill="rgba(180, 58, 52, 0.55)"></path>
        <path d="M1053.16 525.56a24.24 24.24 0 1 0 45.8-15.91z" fill="rgba(223, 96, 113, 1)"></path>
        <path d="M685.88 156.36L698.9 156.36L698.9 182.41L685.88 182.41z" fill="rgba(223, 96, 113, 1)"></path>
        <path d="M596.27 392.13L631.25 392.13L631.25 427.11L596.27 427.11z" fill="rgba(180, 58, 52, 0.55)"></path>
        <path d="M1300 261.75a14.18 14.18 0 1 0-6.09-27.7z" stroke="rgba(39, 39, 91, 0.69)"></path>
        <path d="M1283.36 474.26L1327.35 474.26L1327.35 518.25L1283.36 518.25z" fill="rgba(39, 39, 91, 0.69)"></path>
        <path d="M796.51 41.46a43.43 43.43 0 1 0 61.87 60.97z" stroke="rgba(39, 39, 91, 0.69)"></path>
        <path d="M1381.44 426.32L1416.75 426.32L1416.75 461.49L1381.44 461.49z" stroke="rgba(39, 39, 91, 0.69)"></path>
        <path d="M1424.67 261.19L1444.23 261.19L1444.23 314.35L1424.67 314.35z" stroke="rgba(180, 58, 52, 0.55)"></path>
        <path d="M256.7 58.08a16.73 16.73 0 1 0 15.82 29.48z" fill="rgba(223, 96, 113, 1)"></path>
        <path d="M85.78 393.25 a30.96 30.96 0 1 0 61.92 0 a30.96 30.96 0 1 0 -61.92 0z" fill="rgba(223, 96, 113, 1)"></path>
        <path d="M458.31 290.67 a49.72 49.72 0 1 0 99.44 0 a49.72 49.72 0 1 0 -99.44 0z" fill="rgba(223, 96, 113, 1)"></path>
        <path d="M605.06 427.01L640.72 427.01L640.72 459.18L605.06 459.18z" fill="rgba(39, 39, 91, 0.69)"></path>
        <path d="M91.09 279.72L125.61 279.72L125.61 314.24L91.09 314.24z" fill="rgba(223, 96, 113, 1)"></path>
        <path d="M1102.4 433.07 a38.27 38.27 0 1 0 76.54 0 a38.27 38.27 0 1 0 -76.54 0z" stroke="rgba(39, 39, 91, 0.69)"></path>
        <path d="M255.05 547.95L268.33 547.95L268.33 561.23L255.05 561.23z" fill="rgba(39, 39, 91, 0.69)"></path>
        <path d="M1450.89 124.5a33.42 33.42 0 1 0-66.23 9.03z" fill="rgba(223, 96, 113, 1)"></path>
        <path d="M119.18 492.32a47.33 47.33 0 1 0 25.08 91.28z" stroke="rgba(223, 96, 113, 1)"></path>
        <path d="M1364.27 150.56L1364.95 150.56L1364.95 185.76L1364.27 185.76z" stroke="rgba(39, 39, 91, 0.69)"></path>
        <path d="M1327.2 436.2a42.09 42.09 0 1 0 75.18-37.88z" stroke="rgba(180, 58, 52, 0.55)"></path>
        <path d="M746.68 110.53L767.46 110.53L767.46 131.31L746.68 131.31z" fill="rgba(39, 39, 91, 0.69)"></path>
        <path d="M1098.07 242.08 a7.16 7.16 0 1 0 14.32 0 a7.16 7.16 0 1 0 -14.32 0z" stroke="rgba(39, 39, 91, 0.69)"></path>
        <path d="M660.89 283a12.03 12.03 0 1 0 13.8 19.71z" fill="rgba(39, 39, 91, 0.69)"></path>
        <path d="M1289.59 216.55L1299.22 216.55L1299.22 233.74L1289.59 233.74z" fill="rgba(223, 96, 113, 1)"></path>
        <path d="M644.46 152.78a22.86 22.86 0 1 0-42.08-17.87z" fill="rgba(223, 96, 113, 1)"></path>
        <path d="M97.74 330.31L113.67 330.31L113.67 346.24L97.74 346.24z" fill="rgba(180, 58, 52, 0.55)"></path>
        <path d="M286.7 209.69L288.56 209.69L288.56 229.34L286.7 229.34z" stroke="rgba(39, 39, 91, 0.69)"></path>
        <path d="M1110.31 318.92 a13.93 13.93 0 1 0 27.86 0 a13.93 13.93 0 1 0 -27.86 0z" fill="rgba(180, 58, 52, 0.55)"></path>
    </g>
    <defs>
        <mask id="SvgjsMask1008">
            <rect width="1440" height="560" fill="#ffffff"></rect>
        </mask>
    </defs>
</svg>