<svg id="wave" style="transform:rotate(180deg); transition: 0.3s" viewBox="0 0 1440 220" version="1.1" xmlns="http://www.w3.org/2000/svg"><defs><linearGradient id="sw-gradient-0" x1="0" x2="0" y1="1" y2="0"><stop stop-color="rgba(255, 251, 246, 1)" offset="0%"></stop><stop stop-color="rgba(255, 251, 246, 1)" offset="100%"></stop></linearGradient></defs><path style="transform:translate(0, 0px); opacity:1" fill="url(#sw-gradient-0)" d="M0,0L60,25.7C120,51,240,103,360,117.3C480,132,600,110,720,99C840,88,960,88,1080,73.3C1200,59,1320,29,1440,36.7C1560,44,1680,88,1800,117.3C1920,147,2040,161,2160,172.3C2280,183,2400,191,2520,187C2640,183,2760,169,2880,146.7C3000,125,3120,95,3240,88C3360,81,3480,95,3600,84.3C3720,73,3840,37,3960,22C4080,7,4200,15,4320,29.3C4440,44,4560,66,4680,84.3C4800,103,4920,117,5040,106.3C5160,95,5280,59,5400,36.7C5520,15,5640,7,5760,29.3C5880,51,6000,103,6120,132C6240,161,6360,169,6480,150.3C6600,132,6720,88,6840,80.7C6960,73,7080,103,7200,106.3C7320,110,7440,88,7560,99C7680,110,7800,154,7920,154C8040,154,8160,110,8280,95.3C8400,81,8520,95,8580,102.7L8640,110L8640,220L8580,220C8520,220,8400,220,8280,220C8160,220,8040,220,7920,220C7800,220,7680,220,7560,220C7440,220,7320,220,7200,220C7080,220,6960,220,6840,220C6720,220,6600,220,6480,220C6360,220,6240,220,6120,220C6000,220,5880,220,5760,220C5640,220,5520,220,5400,220C5280,220,5160,220,5040,220C4920,220,4800,220,4680,220C4560,220,4440,220,4320,220C4200,220,4080,220,3960,220C3840,220,3720,220,3600,220C3480,220,3360,220,3240,220C3120,220,3000,220,2880,220C2760,220,2640,220,2520,220C2400,220,2280,220,2160,220C2040,220,1920,220,1800,220C1680,220,1560,220,1440,220C1320,220,1200,220,1080,220C960,220,840,220,720,220C600,220,480,220,360,220C240,220,120,220,60,220L0,220Z"></path></svg>