<svg xmlns="http://www.w3.org/2000/svg" version="1.1" xmlns:xlink="http://www.w3.org/1999/xlink" xmlns:svgjs="http://svgjs.dev/svgjs" width="1440" height="560" preserveAspectRatio="none" viewBox="0 0 1440 560">
    <g mask="url(&quot;#SvgjsMask1013&quot;)" fill="none">
        <rect width="1440" height="560" x="0" y="0" fill="rgba(39, 39, 91, 1)"></rect>
        <path d="M598.21 539.23L607.29 539.23L607.29 561.15L598.21 561.15z" fill="rgba(99, 147, 96, 1)"></path>
        <path d="M205.49 511.61L228.51 511.61L228.51 542.98L205.49 542.98z" fill="rgba(190, 139, 29, 1)"></path>
        <path d="M1240.82 394.19L1266.58 394.19L1266.58 419.95L1240.82 419.95z" fill="rgba(218, 46, 46, 0.57)"></path>
        <path d="M842.16 508.49L856.68 508.49L856.68 516.17L842.16 516.17z" fill="rgba(255, 255, 254, 0.53)"></path>
        <path d="M58.67 317.35L97.08 317.35L97.08 332.06L58.67 332.06z" stroke="rgba(218, 46, 46, 0.57)"></path>
        <path d="M286.01 197.85L288.6 197.85L288.6 200.44L286.01 200.44z" stroke="rgba(255, 255, 254, 0.53)"></path>
        <path d="M1286.11 372.5 a8.88 8.88 0 1 0 17.76 0 a8.88 8.88 0 1 0 -17.76 0z" stroke="rgba(190, 139, 29, 1)"></path>
        <path d="M77.49 140.67L127.69 140.67L127.69 181.5L77.49 181.5z" fill="rgba(190, 139, 29, 1)"></path>
        <path d="M962.92 260.22 a52.33 52.33 0 1 0 104.66 0 a52.33 52.33 0 1 0 -104.66 0z" fill="rgba(99, 147, 96, 1)"></path>
        <path d="M774.23 440.69L820.77 440.69L820.77 487.23L774.23 487.23z" stroke="rgba(218, 46, 46, 0.57)"></path>
        <path d="M1173.64 202.5L1226.5 202.5L1226.5 232.25L1173.64 232.25z" fill="rgba(190, 139, 29, 1)"></path>
        <path d="M1055.2 139.27L1061.03 139.27L1061.03 157.16L1055.2 157.16z" stroke="rgba(99, 147, 96, 1)"></path>
        <path d="M1412.44 240.76L1418.25 240.76L1418.25 246.57L1412.44 246.57z" stroke="rgba(255, 255, 254, 0.53)"></path>
        <path d="M323.28 301.81 a19.77 19.77 0 1 0 39.54 0 a19.77 19.77 0 1 0 -39.54 0z" stroke="rgba(218, 46, 46, 0.57)"></path>
        <path d="M713.62 115.05L739.84 115.05L739.84 141.27L713.62 141.27z" stroke="rgba(190, 139, 29, 1)"></path>
        <path d="M514.85 503.5L545.52 503.5L545.52 509.24L514.85 509.24z" fill="rgba(255, 255, 254, 0.53)"></path>
        <path d="M380.59 355.56L410.59 355.56L410.59 385.56L380.59 385.56z" stroke="rgba(218, 46, 46, 0.57)"></path>
        <path d="M347.26 50.81L401.18 50.81L401.18 100.75L347.26 100.75z" stroke="rgba(218, 46, 46, 0.57)"></path>
        <path d="M619.53 533.28a26.47 26.47 0 1 0 40.4-34.2z" fill="rgba(255, 255, 254, 0.53)"></path>
        <path d="M1211.17 461.83a18.29 18.29 0 1 0 26.51 25.2z" fill="rgba(99, 147, 96, 1)"></path>
        <path d="M339.23 530.68a23.21 23.21 0 1 0 42.36 18.98z" fill="rgba(255, 255, 254, 0.53)"></path>
        <path d="M4.3 219.75L42.71 219.75L42.71 248.79L4.3 248.79z" stroke="rgba(255, 255, 254, 0.53)"></path>
        <path d="M901.02 267.59L945.05 267.59L945.05 283.22L901.02 283.22z" stroke="rgba(255, 255, 254, 0.53)"></path>
        <path d="M1366.38 456.01L1416.33 456.01L1416.33 505.96L1366.38 505.96z" fill="rgba(218, 46, 46, 0.57)"></path>
        <path d="M1002.16 132.81 a23.95 23.95 0 1 0 47.9 0 a23.95 23.95 0 1 0 -47.9 0z" fill="rgba(99, 147, 96, 1)"></path>
        <path d="M1327.25 35.25a29.05 29.05 0 1 0-45.97 35.52z" fill="rgba(255, 255, 254, 0.53)"></path>
        <path d="M1226.85 413.61 a16.99 16.99 0 1 0 33.98 0 a16.99 16.99 0 1 0 -33.98 0z" fill="rgba(255, 255, 254, 0.53)"></path>
        <path d="M84.84 274.48L86.76 274.48L86.76 276.4L84.84 276.4z" fill="rgba(190, 139, 29, 1)"></path>
        <path d="M419.45 253.95a30.59 30.59 0 1 0-15.06-59.3z" fill="rgba(99, 147, 96, 1)"></path>
        <path d="M1334.62 411.37L1348.18 411.37L1348.18 424.93L1334.62 424.93z" stroke="rgba(218, 46, 46, 0.57)"></path>
        <path d="M1150.09 204.87 a3.93 3.93 0 1 0 7.86 0 a3.93 3.93 0 1 0 -7.86 0z" fill="rgba(99, 147, 96, 1)"></path>
        <path d="M1325.06 381.9 a16.18 16.18 0 1 0 32.36 0 a16.18 16.18 0 1 0 -32.36 0z" fill="rgba(218, 46, 46, 0.57)"></path>
        <path d="M82 370.59a29.62 29.62 0 1 0-24.13-54.11z" stroke="rgba(255, 255, 254, 0.53)"></path>
    </g>
    <defs>
        <mask id="SvgjsMask1013">
            <rect width="1440" height="560" fill="#ffffff"></rect>
        </mask>
    </defs>
</svg>