<svg xmlns="http://www.w3.org/2000/svg" version="1.1" xmlns:xlink="http://www.w3.org/1999/xlink" xmlns:svgjs="http://svgjs.dev/svgjs" width="1440" height="560" preserveAspectRatio="none" viewBox="0 0 1440 560">
    <g mask="url(&quot;#SvgjsMask1227&quot;)" fill="none">
        <rect width="1440" height="560" x="0" y="0" fill="rgba(43, 43, 94, 1)"></rect>
        <path d="M0,414.426C74.707,395.129,139.135,358.662,207.468,322.827C283.143,283.142,377.133,265.375,422.408,192.907C469.092,118.184,460.508,22.788,449.539,-64.634C438.415,-153.288,413.084,-239.971,359.155,-311.209C302.926,-385.486,228.011,-445.968,139.308,-474.439C49.384,-503.302,-51.209,-507.497,-138.259,-470.867C-221.585,-435.804,-263.876,-348.27,-323.015,-279.894C-382.09,-211.591,-457.446,-155.701,-485.177,-69.758C-515.594,24.509,-519.493,128.619,-484.759,221.382C-448.811,317.387,-385.299,413.414,-290.059,451.341C-197.637,488.146,-96.32,439.306,0,414.426" fill="#22224b"></path>
        <path d="M1440 1206.4389999999999C1563.454 1224.5529999999999 1702.484 1195.704 1794.112 1111.009 1883.05 1028.8 1871.071 889.086 1908.087 773.768 1939.997 674.359 1985.185 583.733 1996.675 479.962 2011.3339999999998 347.572 2066.952 192.841 1983.9479999999999 88.666 1901.407-14.927999999999997 1739.533-8.82000000000005 1607.076-9.008000000000038 1497.971-9.163000000000011 1406.996 60.56200000000001 1301.319 87.697 1190.491 116.15499999999997 1067.328 91.428 971.634 154.159 861.966 226.051 768.777 331.88300000000004 735.381 458.69100000000003 700.451 591.325 704.638 748.285 786.108 858.623 865.662 966.366 1028.671 953.153 1146.915 1016.049 1251.895 1071.8899999999999 1322.353 1189.1770000000001 1440 1206.4389999999999" fill="#343471"></path>
    </g>
    <defs>
        <mask id="SvgjsMask1227">
            <rect width="1440" height="560" fill="#ffffff"></rect>
        </mask>
    </defs>
</svg>